<?xml version="1.0" encoding="UTF-8" standalone="no"?>
<!-- Created with Inkscape (http://www.inkscape.org/) -->

<svg
   xmlns:dc="http://purl.org/dc/elements/1.1/"
   xmlns:cc="http://creativecommons.org/ns#"
   xmlns:rdf="http://www.w3.org/1999/02/22-rdf-syntax-ns#"
   xmlns:svg="http://www.w3.org/2000/svg"
   xmlns="http://www.w3.org/2000/svg"
   version="1.1"
   width="527"
   height="188"
   id="svg3373"
   xml:space="preserve"><metadata
     id="metadata3379"><rdf:RDF><cc:Work
         rdf:about=""><dc:format>image/svg+xml</dc:format><dc:type
           rdf:resource="http://purl.org/dc/dcmitype/StillImage" /><dc:title></dc:title></cc:Work></rdf:RDF></metadata><defs
     id="defs3377"><clipPath
   id="clipPath3391"><path
     d="M 0,0 167,0 167,209 0,209 0,0 z"
     id="path3393" /></clipPath><clipPath
   id="clipPath3395"><path
     d="M 0,0 167,0 167,209 0,209 0,0 z"
     id="path3397" /></clipPath>
</defs><g
     transform="matrix(1.25,0,0,-1.25,0,187.99989)"
     id="g3383" /><g
     transform="matrix(0.84338493,0,0,-0.84338493,-1.3894309,181.90836)"
     id="g3385"
     style="fill:#000000"><g
       transform="translate(0,-0.25119)"
       id="g3387"
       style="fill:#000000"><g
         id="g3389"
         style="fill:#000000" /><g
         id="g3399"
         style="fill:#000000"><g
           clip-path="url(#clipPath3391)"
           id="g3401"
           style="fill:#000000"><g
             id="g3403"
             style="fill:#000000" /><g
             id="g3405"
             style="fill:#000000"><g
               id="g3407"
               style="fill:#000000"><g
                 id="g3409"
                 style="fill:#000000" /><g
                 id="g3411"
                 style="fill:#000000"><g
                   clip-path="url(#clipPath3395)"
                   id="g3413"
                   style="fill:#000000"><g
                     id="g3415"
                     style="fill:#000000" /><g
                     id="g3417"
                     style="fill:#000000"><path
                       d="M 74.242,83.84 50.781,63.152 C 50.074,62.527 48.992,62.59 48.363,63.305 L 26.816,87.73 c -0.625,0.711 -0.558,1.797 0.153,2.422 l 23.457,20.692 c 0.711,0.625 1.797,0.558 2.426,-0.153 L 74.395,86.262 c 0.625,-0.715 0.554,-1.797 -0.153,-2.422 m 67.016,60.762 c -0.223,6.242 -5.024,4.246 -6.637,3.722 6.516,4.043 12.121,15.942 10.656,21.082 -1.144,4.008 -3.797,2.637 -7.027,-0.496 9.43,21.285 -4.531,32.711 -4.531,32.695 -2.407,1.583 -4.117,-0.543 -4.078,-3.707 0.484,-25.601 -18.231,-40.394 -38.664,-52.664 -15.364,-9.925 -20.801,-26.629 -22.688,-38.57 -0.469,-1.465 -1.574,-0.766 -2.105,-0.312 L 54.367,119.75 c -1.293,1.461 -3.109,2.176 -4.914,2.117 -1.398,-0.051 -2.789,-0.562 -3.918,-1.562 L 45,119.836 l -0.008,0.008 -0.008,-0.008 -2.855,3.234 c -0.844,0.957 -1.996,1.461 -3.117,1.473 -0.867,0.004 -1.715,-0.281 -2.391,-0.875 l -1.574,-1.387 c -1.551,-1.371 -1.598,-3.859 -0.098,-5.558 l 2.856,-3.235 -19.43,-17.133 c -2.59,-2.289 -2.84,-6.242 -0.551,-8.832 L 85.129,11.211 c 1.281,-1.453 3.09,-2.172 4.891,-2.113 1.406,0.043 2.8,0.558 3.937,1.558 l 27.16,23.957 c 2.59,2.285 2.836,6.239 0.551,8.828 L 98.895,69.266 c -0.012,0.019 -0.024,0.039 -0.036,0.058 -0.836,1.332 1.528,1.078 1.528,1.078 l 0.004,0.02 c 3.668,-0.121 6.406,0.73 8.343,2.035 2.95,1.984 -0.402,3.445 -0.922,4.883 4.547,-2.188 13.493,-0.324 15.719,2.551 1.739,2.242 -1.258,3.183 -4.117,3.824 7.219,3.355 12.977,6.703 16.066,14.664 1.813,4.664 -3.171,4.801 -8.136,2.922 4.051,4.054 8.117,9.586 10.14,16.668 2.293,8.019 -0.699,12.054 -7.16,6.644 5.879,5.758 11.16,13.399 10.934,19.989"
                       id="path3419"
                       style="fill:#000000;fill-opacity:1;fill-rule:nonzero;stroke:none" /></g></g></g></g></g></g></g></g></g><g
     transform="matrix(1.5650132,0,0,1.5650132,-108.53057,251.26913)"
     id="text3421"
     style="font-size:32px;font-style:normal;font-variant:normal;font-weight:500;font-stretch:normal;line-height:125%;letter-spacing:0px;word-spacing:0px;fill:#000000;fill-opacity:1;stroke:none;font-family:Futura;-inkscape-font-specification:Futura Medium"><g
       transform="translate(7.667667,0)"
       id="g3041"
       style="fill:#000000"><path
         d="m 153.30132,-84.472504 5.07812,-25.937496 8.28125,18.749996 8.57813,-18.749996 4.5625,25.937496 -3.73438,0 -2.32812,-14.5625 -7.14063,15.671875 -6.9375,-15.6875 -2.59375,14.578125 -3.76562,0"
         id="path3023"
         style="fill:#000000" /><path
         d="m 198.20757,-105.17563 -9.67188,0 0,5.796876 9.39063,0 0,3.421875 -9.39063,0 0,8.0625 9.67188,0 0,3.421875 -13.3125,0 0,-24.124996 13.3125,0 0,3.42187"
         id="path3025"
         style="fill:#000000" /><path
         d="m 203.02007,-84.472504 0,-24.124996 5.0625,0 c 2.42707,2e-5 4.34373,0.2396 5.75,0.71875 1.5104,0.46877 2.88019,1.26564 4.10937,2.39062 2.48956,2.27085 3.73435,5.25523 3.73438,8.953126 -3e-5,3.708342 -1.2969,6.708339 -3.89063,9 -1.3021,1.145836 -2.66668,1.94271 -4.09375,2.390625 -1.33335,0.447917 -3.22397,0.671875 -5.67187,0.671875 l -5,0 m 3.64062,-3.421875 1.64063,0 c 1.6354,4e-6 2.99478,-0.171871 4.07812,-0.515625 1.08332,-0.364579 2.06249,-0.942703 2.9375,-1.734375 1.79165,-1.635409 2.68748,-3.765615 2.6875,-6.390625 -2e-5,-2.645818 -0.88543,-4.791646 -2.65625,-6.437496 -1.59376,-1.46873 -3.94272,-2.20311 -7.04687,-2.20313 l -1.64063,0 0,17.281251"
         id="path3027"
         style="fill:#000000" /><path
         d="m 229.91069,-108.5975 0,24.124996 -3.64062,0 0,-24.124996 3.64062,0"
         id="path3029"
         style="fill:#000000" /><path
         d="m 253.53569,-107.30063 0,4.3125 c -2.10418,-1.7604 -4.28127,-2.6406 -6.53125,-2.64062 -2.47918,2e-5 -4.56772,0.89064 -6.26562,2.67187 -1.70834,1.77085 -2.56251,3.937516 -2.5625,6.500001 -1e-5,2.53126 0.85416,4.666674 2.5625,6.40625 1.70832,1.739588 3.80207,2.609378 6.28125,2.609375 1.28123,3e-6 2.36977,-0.20833 3.26562,-0.625 0.49998,-0.208329 1.01561,-0.489579 1.54688,-0.84375 0.54164,-0.354162 1.10935,-0.781244 1.70312,-1.28125 l 0,4.390625 c -2.08335,1.177084 -4.27085,1.765625 -6.5625,1.765625 -3.44793,0 -6.39063,-1.203124 -8.82812,-3.609375 -2.42709,-2.427077 -3.64063,-5.354158 -3.64063,-8.78125 0,-3.072901 1.01562,-5.812481 3.04688,-8.218751 2.49999,-2.94789 5.73436,-4.42185 9.70312,-4.42187 2.16665,2e-5 4.2604,0.58856 6.28125,1.76562"
         id="path3031"
         style="fill:#000000" /><path
         d="m 267.17632,-84.472504 5.07812,-25.937496 8.28125,18.749996 8.57813,-18.749996 4.5625,25.937496 -3.73438,0 -2.32812,-14.5625 -7.14063,15.671875 -6.9375,-15.6875 -2.59375,14.578125 -3.76562,0"
         id="path3033"
         style="fill:#000000" /><path
         d="m 297.56694,-96.644379 c 0,-3.395821 1.24479,-6.312481 3.73438,-8.750001 2.47915,-2.43748 5.45832,-3.65622 8.9375,-3.65625 3.43748,3e-5 6.38539,1.22919 8.84375,3.6875 2.46872,2.45835 3.70309,5.411475 3.70312,8.859376 -3e-5,3.468759 -1.23961,6.411464 -3.71875,8.828125 -2.4896,2.427084 -5.49481,3.640625 -9.01562,3.640625 -3.1146,0 -5.91147,-1.078124 -8.39063,-3.234375 -2.72917,-2.385411 -4.09375,-5.510408 -4.09375,-9.375 m 3.67188,0.04687 c -10e-6,2.666676 0.89582,4.859383 2.6875,6.578125 1.78124,1.718754 3.83853,2.578128 6.17187,2.578125 2.53123,3e-6 4.66665,-0.874996 6.40625,-2.625 1.73956,-1.770826 2.60935,-3.927073 2.60938,-6.46875 -3e-5,-2.572902 -0.8594,-4.729151 -2.57813,-6.468741 -1.70835,-1.74998 -3.82293,-2.62498 -6.34375,-2.625 -2.51043,2e-5 -4.63022,0.87502 -6.35937,2.625 -1.72918,1.72917 -2.59376,3.864589 -2.59375,6.406241"
         id="path3035"
         style="fill:#000000" /><path
         d="m 327.39507,-84.472504 0,-24.124996 3.625,0 c 1.61457,2e-5 2.90103,0.12502 3.85937,0.375 0.96874,0.25002 1.78645,0.67189 2.45313,1.26562 0.67707,0.61461 1.21352,1.38023 1.60937,2.29688 0.40624,0.9271 0.60936,1.8646 0.60938,2.8125 -2e-5,1.72918 -0.66148,3.192719 -1.98438,4.390621 1.28124,0.437513 2.29165,1.203137 3.03125,2.296875 0.74998,1.083343 1.12498,2.343759 1.125,3.78125 -2e-5,1.885422 -0.66668,3.47917 -2,4.78125 -0.8021,0.802085 -1.70314,1.359376 -2.70312,1.671875 -1.09377,0.302084 -2.46356,0.453125 -4.10938,0.453125 l -5.51562,0 m 3.64062,-13.765625 1.14063,0 c 1.35415,1.4e-5 2.34374,-0.296861 2.96875,-0.890625 0.6354,-0.604151 0.95311,-1.489566 0.95312,-2.656246 -10e-6,-1.1354 -0.32293,-1.99478 -0.96875,-2.57813 -0.64584,-0.59373 -1.58334,-0.8906 -2.8125,-0.89062 l -1.28125,0 0,7.015621 m 0,10.34375 2.25,0 c 1.64582,4e-6 2.85416,-0.322913 3.625,-0.96875 0.81249,-0.697911 1.21874,-1.583327 1.21875,-2.65625 -10e-6,-1.041658 -0.39064,-1.916657 -1.17187,-2.625 -0.76043,-0.697906 -2.11981,-1.046864 -4.07813,-1.046875 l -1.84375,0 0,7.296875"
         id="path3037"
         style="fill:#000000" /><path
         d="m 349.97319,-108.5975 0,24.124996 -3.64062,0 0,-24.124996 3.64062,0"
         id="path3039"
         style="fill:#000000" /><path
         d="m 359.41069,-108.5975 0,20.703121 7.09375,0 0,3.421875 -10.73437,0 0,-24.124996 3.64062,0"
         id="path3041"
         style="fill:#000000" /><path
         d="m 383.27007,-105.17563 -9.67188,0 0,5.796876 9.39063,0 0,3.421875 -9.39063,0 0,8.0625 9.67188,0 0,3.421875 -13.3125,0 0,-24.124996 13.3125,0 0,3.42187"
         id="path3043"
         style="fill:#000000" /></g></g></svg>